<svg width="18" height="14" viewBox="0 0 18 14" fill="none" xmlns="http://www.w3.org/2000/svg">
<path d="M14.8334 0.333252H3.16675C2.50371 0.333252 1.86782 0.596644 1.39898 1.06549C0.93014 1.53433 0.666748 2.17021 0.666748 2.83325V11.1666C0.666748 11.8296 0.93014 12.4655 1.39898 12.9344C1.86782 13.4032 2.50371 13.6666 3.16675 13.6666H14.8334C15.4965 13.6666 16.1323 13.4032 16.6012 12.9344C17.07 12.4655 17.3334 11.8296 17.3334 11.1666V2.83325C17.3334 2.17021 17.07 1.53433 16.6012 1.06549C16.1323 0.596644 15.4965 0.333252 14.8334 0.333252ZM14.8334 1.99992L9.41675 5.72492C9.29006 5.79806 9.14636 5.83656 9.00008 5.83656C8.8538 5.83656 8.7101 5.79806 8.58341 5.72492L3.16675 1.99992H14.8334Z" fill="white"/>
</svg>
