<svg width="16" height="14" viewBox="0 0 16 14" fill="none" xmlns="http://www.w3.org/2000/svg">
<path d="M4.73325 13.6667C5.96549 13.7079 7.1935 13.5017 8.3447 13.0602C9.49589 12.6188 10.5469 11.9511 11.4357 11.0965C12.3244 10.2419 13.0328 9.21791 13.5191 8.0849C14.0053 6.95189 14.2595 5.73291 14.2666 4.5C14.8313 3.80117 15.2506 2.99652 15.4999 2.13333C15.5185 2.06513 15.517 1.99301 15.4956 1.92564C15.4742 1.85828 15.4337 1.79854 15.3791 1.75363C15.3245 1.70872 15.2581 1.68056 15.1879 1.67252C15.1176 1.66448 15.0466 1.67692 14.9832 1.70833C14.6878 1.85054 14.3552 1.89648 14.0323 1.83967C13.7094 1.78286 13.4124 1.62616 13.1832 1.39166C12.8907 1.07131 12.5368 0.812938 12.1426 0.631852C11.7484 0.450766 11.3218 0.350652 10.8882 0.337441C10.4546 0.32423 10.0227 0.398192 9.6182 0.554943C9.21368 0.711695 8.84475 0.948047 8.53325 1.25C8.10674 1.66304 7.79435 2.1794 7.62642 2.74889C7.4585 3.31838 7.44075 3.92162 7.57491 4.5C4.78325 4.66666 2.86658 3.34166 1.33325 1.525C1.28718 1.47283 1.22692 1.43521 1.15983 1.41672C1.09274 1.39823 1.02172 1.39968 0.955433 1.42089C0.889151 1.4421 0.83048 1.48216 0.786584 1.53616C0.742688 1.59016 0.715467 1.65578 0.708246 1.725C0.416137 3.34535 0.626853 5.01629 1.31209 6.51339C1.99733 8.01049 3.12428 9.26206 4.54158 10.1C3.59128 11.1899 2.25675 11.8705 0.816579 12C0.739423 12.0128 0.668197 12.0494 0.612872 12.1047C0.557547 12.16 0.52089 12.2311 0.508032 12.3083C0.495175 12.3854 0.506759 12.4647 0.541165 12.5349C0.575571 12.6051 0.631076 12.6629 0.699912 12.7C1.95285 13.3261 3.3326 13.6568 4.73325 13.6667Z" fill="white"/>
</svg>
